/* XPM */
static char *result[] = {
/* columns rows colors chars-per-pixel */
"64 64 10 1 ",
"  c #566460",
". c #957A4B",
"X c #66835C",
"o c #79A157",
"O c #B09643",
"+ c #8DB15D",
"@ c #BFD470",
"# c #D3C169",
"$ c #E9E177",
"% c #F3F2C0",
/* pixels */
"@@@@@@@@@@@@@@@@@@@@@@@@@@@@@@@@@@@@@@@@@@@@@@@@@@@@@@@@@@@@@@@@",
"@@@@@@@@@@@@@@@@@@@@@@@@@@@@@@@@@@@@@@@@@@@@@@@@@@@@@@@@@@@@@@@@",
"@@@@@@@@@@@@@@@@@@@@@@@@@@@@@@@@@@@@@@@@@@@@@@@@@@@@@@@@@@@@@@@@",
"@@@@@@@@@@@@@@@@@@@@@@@@@@@@@@@@@@@@@@@@@@@@@@@@@@@@@@@@@@@@@@@@",
"@@@@@@@@@@@@@@@@@@@@@@@@@@@@@@@@@@@@@@@@@@@@@@@@@@@@@@@@@@@@@@@@",
"@@@@@@@@@@@@@@@@@@@@@@@@@@@@@@@@@@@@@@@@@@@@@@@@@@@@@@@@@@@@@@@@",
"@@@@@@@@@@@@@@@@@@@@@@@@@@@@@@@@@@@@@@@@@@@@@@@@@@@@@@@@@@@@@@@@",
"@@@@@@@@@@@@@@@@@@@@@@@@@@@@@@@@@@@@@@@@@@@@@@@@@@@@@@@@@@@@@@@@",
"@@@@@@@@@@@@@@@@@@@@@@@@@@@@@@@@@@@@@@@@@@@@@@@@@@@@@@@@@@@@@@@@",
"@@@@@@@@@@@@@@@@@@@@@OOOOOOOOOOOOO.........@@@@@@@@@@@@@@@@@@@@@",
"@@@@@@@@@@@@@@@@@@@@@OOOOOOOOOOOOO.........@@@@@@@@@@@@@@@@@@@@@",
"@@@@@@@@@@@@@@@@@@@@@OOOOOOOOOOOOO.........@@@@@@@@@@@@@@@@@@@@@",
"@@@@@@@@@@@@@@@@@@@@@OOOOOOOOOOOOO.........@@@@@@@@@@@@@@@@@@@@@",
"@@@@@@@@@@@@@@@@@@@@@OOOOOOOOOOOOO.........@@@@@@@@@@@@@@@@@@@@@",
"@@@@@@@@@@@@@@@@OOOOO%%%%%%%%%$$$$$$$$$$$$$....@@@@@@@@@@@@@@@@@",
"@@@@@@@@@@@@@@@@OOOOO%%%%%%%%%$$$$$$$$$$$$$....@@@@@@@@@@@@@@@@@",
"@@@@@@@@@@@@@@@@OOOOO%%%%%%%%%$$$$$$$$$$$$$....@@@@@@@@@@@@@@@@@",
"@@@@@@@@@@@@@@@@OOOOO%%%%%%%%%$$$$$$$$$$$$$....@@@@@@@@@@@@@@@@@",
"@@@@@@@@@@@@@@@@OOOOO%%%%%%%%%$$$$$$$$$$$$$....@@@@@@@@@@@@@@@@@",
"@@@@@@@@@@@@@@@@OOOOO%%%%%%%%%$$$$$$$$$$$$$....@@@@@@@@@@@@@@@@@",
"@@@@@@@@@@@@@@@@.....$$$$OOOOOOOOOOOOO$$$$$....@@@@@@@@@@@@@@@@@",
"@@@@@@@@@@@@@@@@.....$$$$OOOOOOOOOOOOO$$$$$....@@@@@@@@@@@@@@@@@",
"@@@@@@@@@@@@@@@@.....$$$$OOOOOOOOOOOOO$$$$$....@@@@@@@@@@@@@@@@@",
"@@@@@@@@@@@@@@@@.....$$$$OOOOOOOOOOOOO$$$$$....@@@@@@@@@@@@@@@@@",
"@@@@@@@@@@@@@@@@.....$$$$OOOOOOOOOOOOO$$$$$....@@@@@@@@@@@@@@@@@",
"@@@@@@@@XXXXXXXX.....$$$$$$$$$$$$$$$$$$$$$$....XXXXXXXXX@@@@@@@@",
"@@@@@@@@XXXXXXXX.....$$$$$$$$$$$$$$$$$$$$$$....XXXXXXXXX@@@@@@@@",
"@@@@@@@@XXXXXXXX.....$$$$$$$$$$$$$$$$$$$$$$....XXXXXXXXX@@@@@@@@",
"@@@@@@@@XXXXXXXX.....$$$$$$$$$$$$$$$$$$$$$$....XXXXXXXXX@@@@@@@@",
"@@@@@@@@XXXXXXXX.....$$$$$$$$$$$$$$$$$$$$$$....XXXXXXXXX@@@@@@@@",
"@@@@@@@@XXXXXXXX.....$$$$$$$$$$$$$$$$$$$$$$....XXXXXXXXX@@@@@@@@",
"@@@@@@@@XXXX@@@@@@@@@....#############.....@@@@@@@@XXXXX@@@@@@@@",
"@@@@@@@@XXXX@@@@@@@@@....#############.....@@@@@@@@XXXXX@@@@@@@@",
"@@@@@@@@XXXX@@@@@@@@@....#############.....@@@@@@@@XXXXX@@@@@@@@",
"@@@@@@@@XXXX@@@@@@@@@....#############.....@@@@@@@@XXXXX@@@@@@@@",
"@@@@@@@@XXXX@@@@@@@@@....#############.....@@@@@@@@XXXXX@@@@@@@@",
"@@@@@@@@XXXX@@@@@@@@@....#############.....@@@@@@@@XXXXX@@@@@@@@",
"@@@@@@@@XXXX@@@@++++++++++++++oooo+++++++++++++@@@@XXXXX@@@@@@@@",
"@@@@@@@@XXXX@@@@++++++++++++++oooo+++++++++++++@@@@XXXXX@@@@@@@@",
"@@@@@@@@XXXX@@@@++++++++++++++oooo+++++++++++++@@@@XXXXX@@@@@@@@",
"@@@@@@@@XXXX@@@@++++++++++++++oooo+++++++++++++@@@@XXXXX@@@@@@@@",
"@@@@@@@@XXXX@@@@++++++++++++++oooo+++++++++++++@@@@XXXXX@@@@@@@@",
"@@@@@@@@@@@@XXXXXXXXX+++++++++XXXX+++++++++XXXXXXXX@@@@@@@@@@@@@",
"@@@@@@@@@@@@XXXXXXXXX+++++++++XXXX+++++++++XXXXXXXX@@@@@@@@@@@@@",
"@@@@@@@@@@@@XXXXXXXXX+++++++++XXXX+++++++++XXXXXXXX@@@@@@@@@@@@@",
"@@@@@@@@@@@@XXXXXXXXX+++++++++XXXX+++++++++XXXXXXXX@@@@@@@@@@@@@",
"@@@@@@@@@@@@XXXXXXXXX+++++++++XXXX+++++++++XXXXXXXX@@@@@@@@@@@@@",
"@@@@@@@@@@@@XXXXXXXXX+++++++++XXXX+++++++++XXXXXXXX@@@@@@@@@@@@@",
"@@@@@@@@@@@@@@@@@@@@@         @@@@         @@@@@@@@@@@@@@@@@@@@@",
"@@@@@@@@@@@@@@@@@@@@@         @@@@         @@@@@@@@@@@@@@@@@@@@@",
"@@@@@@@@@@@@@@@@@@@@@         @@@@         @@@@@@@@@@@@@@@@@@@@@",
"@@@@@@@@@@@@@@@@@@@@@         @@@@         @@@@@@@@@@@@@@@@@@@@@",
"@@@@@@@@@@@@@@@@@@@@@         @@@@         @@@@@@@@@@@@@@@@@@@@@",
"@@@@@@@@@@@@@@@@@@@@@@@@@@@@@@@@@@@@@@@@@@@@@@@@@@@@@@@@@@@@@@@@",
"@@@@@@@@@@@@@@@@@@@@@@@@@@@@@@@@@@@@@@@@@@@@@@@@@@@@@@@@@@@@@@@@",
"@@@@@@@@@@@@@@@@@@@@@@@@@@@@@@@@@@@@@@@@@@@@@@@@@@@@@@@@@@@@@@@@",
"@@@@@@@@@@@@@@@@@@@@@@@@@@@@@@@@@@@@@@@@@@@@@@@@@@@@@@@@@@@@@@@@",
"@@@@@@@@@@@@@@@@@@@@@@@@@@@@@@@@@@@@@@@@@@@@@@@@@@@@@@@@@@@@@@@@",
"@@@@@@@@@@@@@@@@@@@@@@@@@@@@@@@@@@@@@@@@@@@@@@@@@@@@@@@@@@@@@@@@",
"@@@@@@@@@@@@@@@@@@@@@@@@@@@@@@@@@@@@@@@@@@@@@@@@@@@@@@@@@@@@@@@@",
"@@@@@@@@@@@@@@@@@@@@@@@@@@@@@@@@@@@@@@@@@@@@@@@@@@@@@@@@@@@@@@@@",
"@@@@@@@@@@@@@@@@@@@@@@@@@@@@@@@@@@@@@@@@@@@@@@@@@@@@@@@@@@@@@@@@",
"@@@@@@@@@@@@@@@@@@@@@@@@@@@@@@@@@@@@@@@@@@@@@@@@@@@@@@@@@@@@@@@@",
"@@@@@@@@@@@@@@@@@@@@@@@@@@@@@@@@@@@@@@@@@@@@@@@@@@@@@@@@@@@@@@@@"
};
