/* XPM */
static char *result[] = {
/* columns rows colors chars-per-pixel */
"64 64 5 1 ",
"  c #957A4C",
". c #B09643",
"X c #BFA954",
"o c #D3C169",
"O c None",
/* pixels */
"OOOOOOOOOOOOOOOOOOOOOOOOOOOOOOOOOOOOOOOOOOOOOOOOOOOOOOOOOOOOOOOO",
"OOOOOOOOOOOOOOOOOOOOOOOOOOOOOOOOOOOOOOOOOOOOOOOOOOOOOOOOOOOOOOOO",
"OOOOOOOOOOOOOOOOOOOOOOOOOOOOOOOOOOOOOOOOOOOOOOOOOOOOOOOOOOOOOOOO",
"OOOOOOOOOOOOOOOOOOOOOOOOOOOOOOOOOOOOOOOOOOOOOOOOOOOOOOOOOOOOOOOO",
"OOOOOOOOOOOOOOOOOOOOOOOOOOOOOOOOOOOOOOOOOOOOOOOOOOOOOOOOOOOOOOOO",
"OOOOOOOOOOOOOOOOOOOOOOOOOOOOOOOOOOOOOOOOOOOOOOOOOOOOOOOOOOOOOOOO",
"OOOOOOOOOOOOOOOOOOOOOOOOOOOOOOOOOOOOOOOOOOOOOOOOOOOOOOOOOOOOOOOO",
"OOOOOOOOOOOOOOOOOOOOOOOOOOOOOOOOOOOOOOOOOOOOOOOOOOOOOOOOOOOOOOOO",
"OOOOOOOOOOOOOOOOOOOOOOOOOOOOOOOOOOOOOOOOOOOOOOOOOOOOOOOOOOOOOOOO",
"OOOOOOOOOOOOOOOOOOOOOOOOOOOOOOOOOOOOOOOOOOOOOOOOOOOOOOOOOOOOOOOO",
"OOOOOOOOOOOOOOOOOOOOOOOOOOOOOOOOOOOOOOOOOOOOOOOOOOOOOOOOOOOOOOOO",
"OOOOOOOOOOOOOOOOOOOOOOOOOOOOOOOOOOOOOOOOOOOOOOOOOOOOOOOOOOOOOOOO",
"OOOOOOOOOOOOOO                                   OOOOOOOOOOOOOOO",
"OOOOOOOOOOOOOO                                   OOOOOOOOOOOOOOO",
"OOOOOOOOOOOOOO                                   OOOOOOOOOOOOOOO",
"OOOOOOOOOOOOOO                                   OOOOOOOOOOOOOOO",
"OOOOOOOOOOOOOO                                   OOOOOOOOOOOOOOO",
"OOOOOOOOOOOOOO                                   OOOOOOOOOOOOOOO",
"OOOOOOOOOOOOOO                                   OOOOOOOOOOOOOOO",
"OOOOOOOOO     XXXXoooooooooXXXXXXXXXooooooooXXXXX     OOOOOOOOOO",
"OOOOOOOOO     XXXXoooooooooXXXXXXXXXooooooooXXXXX     OOOOOOOOOO",
"OOOOOOOOO     XXXXoooooooooXXXXXXXXXooooooooXXXXX     OOOOOOOOOO",
"OOOOOOOOO     XXXXoooooooooXXXXXXXXXooooooooXXXXX     OOOOOOOOOO",
"OOOOOOOOO     XXXXoooooooooXXXXXXXXXooooooooXXXXX     OOOOOOOOOO",
"OOOOOOOOO     XXXXoooooooooXXXXXXXXXooooooooXXXXX     OOOOOOOOOO",
"OOOOO    ooooooooo    ..................    oooooooooo     OOOOO",
"OOOOO    ooooooooo    ..................    oooooooooo     OOOOO",
"OOOOO    ooooooooo    ..................    oooooooooo     OOOOO",
"OOOOO    ooooooooo    ..................    oooooooooo     OOOOO",
"OOOOO    ooooooooo    ..................    oooooooooo     OOOOO",
"OOOOO    ooooooooo    ..................    oooooooooo     OOOOO",
"OOOOO    XXXXXoooooooo                  oooooooooXXXXX     OOOOO",
"OOOOO    XXXXXoooooooo                  oooooooooXXXXX     OOOOO",
"OOOOO    XXXXXoooooooo                  oooooooooXXXXX     OOOOO",
"OOOOO    XXXXXoooooooo                  oooooooooXXXXX     OOOOO",
"OOOOO    XXXXXoooooooo                  oooooooooXXXXX     OOOOO",
"OOOOO    XXXXXoooooooo                  oooooooooXXXXX     OOOOO",
"OOOOO    .....XXXXXXXXXXXXXXXXXXXXXXXXXXXXXXXXXXX.....     OOOOO",
"OOOOO    .....XXXXXXXXXXXXXXXXXXXXXXXXXXXXXXXXXXX.....     OOOOO",
"OOOOO    .....XXXXXXXXXXXXXXXXXXXXXXXXXXXXXXXXXXX.....     OOOOO",
"OOOOO    .....XXXXXXXXXXXXXXXXXXXXXXXXXXXXXXXXXXX.....     OOOOO",
"OOOOO    .....XXXXXXXXXXXXXXXXXXXXXXXXXXXXXXXXXXX.....     OOOOO",
"OOOOO    .....XXXXXXXXXXXXXXXXXXXXXXXXXXXXXXXXXXX.....     OOOOO",
"OOOOOOOOO     ........XXXXXXXXXXXXXX........XXXXX     OOOOOOOOOO",
"OOOOOOOOO     ........XXXXXXXXXXXXXX........XXXXX     OOOOOOOOOO",
"OOOOOOOOO     ........XXXXXXXXXXXXXX........XXXXX     OOOOOOOOOO",
"OOOOOOOOO     ........XXXXXXXXXXXXXX........XXXXX     OOOOOOOOOO",
"OOOOOOOOO     ........XXXXXXXXXXXXXX........XXXXX     OOOOOOOOOO",
"OOOOOOOOO     ........XXXXXXXXXXXXXX........XXXXX     OOOOOOOOOO",
"OOOOOOOOOOOOOO                                   OOOOOOOOOOOOOOO",
"OOOOOOOOOOOOOO                                   OOOOOOOOOOOOOOO",
"OOOOOOOOOOOOOO                                   OOOOOOOOOOOOOOO",
"OOOOOOOOOOOOOO                                   OOOOOOOOOOOOOOO",
"OOOOOOOOOOOOOO                                   OOOOOOOOOOOOOOO",
"OOOOOOOOOOOOOO                                   OOOOOOOOOOOOOOO",
"OOOOOOOOOOOOOOOOOOOOOOOOOOOOOOOOOOOOOOOOOOOOOOOOOOOOOOOOOOOOOOOO",
"OOOOOOOOOOOOOOOOOOOOOOOOOOOOOOOOOOOOOOOOOOOOOOOOOOOOOOOOOOOOOOOO",
"OOOOOOOOOOOOOOOOOOOOOOOOOOOOOOOOOOOOOOOOOOOOOOOOOOOOOOOOOOOOOOOO",
"OOOOOOOOOOOOOOOOOOOOOOOOOOOOOOOOOOOOOOOOOOOOOOOOOOOOOOOOOOOOOOOO",
"OOOOOOOOOOOOOOOOOOOOOOOOOOOOOOOOOOOOOOOOOOOOOOOOOOOOOOOOOOOOOOOO",
"OOOOOOOOOOOOOOOOOOOOOOOOOOOOOOOOOOOOOOOOOOOOOOOOOOOOOOOOOOOOOOOO",
"OOOOOOOOOOOOOOOOOOOOOOOOOOOOOOOOOOOOOOOOOOOOOOOOOOOOOOOOOOOOOOOO",
"OOOOOOOOOOOOOOOOOOOOOOOOOOOOOOOOOOOOOOOOOOOOOOOOOOOOOOOOOOOOOOOO",
"OOOOOOOOOOOOOOOOOOOOOOOOOOOOOOOOOOOOOOOOOOOOOOOOOOOOOOOOOOOOOOOO"
};
