/* XPM */
static char *dfca3d02ae994735c60b7cfca2bdde0dw9gJa8whbv8VcjAb[] = {
/* columns rows colors chars-per-pixel */
"64 64 8 1 ",
"  c None",
". c #754C60",
"X c #90625E",
"o c #C49A6C",
"O c #D4C169",
"+ c #C58086",
"@ c #E8CFA6",
"# c #F3F2C0",
/* pixels */
"                                                                ",
"                                                                ",
"                              XXXXXXXXXXXXXX                    ",
"                              XXXXXXXXXXXXXX                    ",
"                              XXXXXXXXXXXXXX                    ",
"                              XXXXXXXXXXXXXX                    ",
"                              XXXXXXXXXXXXXX                    ",
"                          XXXX++++++++++++++XXXXX               ",
"                          XXXX++++++++++++++XXXXX               ",
"                          XXXX++++++++++++++XXXXX               ",
"                          XXXX++++++++++++++XXXXX               ",
"                          XXXX++++++++++++++XXXXX               ",
"                     XXXXX#######################XXXX           ",
"                     XXXXX#######################XXXX           ",
"                     XXXXX#######################XXXX           ",
"                     XXXXX#######################XXXX           ",
"                     XXXXX#######################XXXX           ",
"                XXXXX#####....#########.....#########XXXXX      ",
"                XXXXX#####....#########.....#########XXXXX      ",
"                XXXXX#####....#########.....#########XXXXX      ",
"                XXXXX#####....#########.....#########XXXXX      ",
"                XXXXX#####....#########.....#########XXXXX      ",
"                XXXXX##############OOOOOOOOO#########XXXXX      ",
"                XXXXX##############OOOOOOOOO#########XXXXX      ",
"                XXXXX##############OOOOOOOOO#########XXXXX      ",
"                XXXXX##############OOOOOOOOO#########XXXXX      ",
"                XXXXX##############OOOOOOOOO#########XXXXX      ",
"            XXXX#####################################XXXXX      ",
"            XXXX#####################################XXXXX      ",
"            XXXX#####################################XXXXX      ",
"            XXXX#####################################XXXXX      ",
"            XXXX#####################################XXXXX      ",
"       XXXXX#########################################XXXXX      ",
"       XXXXX#########################################XXXXX      ",
"       XXXXX#########################################XXXXX      ",
"       XXXXX#########################################XXXXX      ",
"       XXXXX#########################################XXXXX      ",
"       XXXXX@@@@#####ooooo#######################@@@@XXXXX      ",
"       XXXXX@@@@#####ooooo#######################@@@@XXXXX      ",
"       XXXXX@@@@#####ooooo#######################@@@@XXXXX      ",
"       XXXXX@@@@#####ooooo#######################@@@@XXXXX      ",
"       XXXXX@@@@#####ooooo#######################@@@@XXXXX      ",
"       XXXXXooooooooo@@@@@@@@@@@@@@@@@@@@@@@@@@@@@@@@XXXXX      ",
"       XXXXXooooooooo@@@@@@@@@@@@@@@@@@@@@@@@@@@@@@@@XXXXX      ",
"       XXXXXooooooooo@@@@@@@@@@@@@@@@@@@@@@@@@@@@@@@@XXXXX      ",
"       XXXXXooooooooo@@@@@@@@@@@@@@@@@@@@@@@@@@@@@@@@XXXXX      ",
"       XXXXXooooooooo@@@@@@@@@@@@@@@@@@@@@@@@@@@@@@@@XXXXX      ",
"       XXXXXOOOOOOOOOXXXXXXXXXXXXXXXXXXXXXXXOOOOOOOOOXXXXX      ",
"       XXXXXOOOOOOOOOXXXXXXXXXXXXXXXXXXXXXXXOOOOOOOOOXXXXX      ",
"       XXXXXOOOOOOOOOXXXXXXXXXXXXXXXXXXXXXXXOOOOOOOOOXXXXX      ",
"       XXXXXOOOOOOOOOXXXXXXXXXXXXXXXXXXXXXXXOOOOOOOOOXXXXX      ",
"       XXXXXOOOOOOOOOXXXXXXXXXXXXXXXXXXXXXXXOOOOOOOOOXXXXX      ",
"            XXXXXXXXX                       XXXXXXXXX           ",
"            XXXXXXXXX                       XXXXXXXXX           ",
"            XXXXXXXXX                       XXXXXXXXX           ",
"            XXXXXXXXX                       XXXXXXXXX           ",
"            XXXXXXXXX                       XXXXXXXXX           ",
"                                                                ",
"                                                                ",
"                                                                ",
"                                                                ",
"                                                                ",
"                                                                ",
"                                                                "
};
