/* XPM */
static char *result[] = {
/* columns rows colors chars-per-pixel */
"64 64 4 1 ",
"  c #8F625E",
". c #E7D0A6",
"X c #F3F2C0",
"o c None",
/* pixels */
"oooooooooooooooooooooooooooooooooooooooooooooooooooooooooooooooo",
"oooooooooooooooooooooooooooooooooooooooooooooooooooooooooooooooo",
"oooooooooooooooooooooooooooooooooooooooooooooooooooooooooooooooo",
"oooooooooooooooooooooooooooooooooooooooooooooooooooooooooooooooo",
"oooooooooooooooooooooooooooooooooooooooooooooooooooooooooooooooo",
"oooooooooooooooooooooooooooooooooooooooooooooooooooooooooooooooo",
"oooooooooooooooooooooooooooooooooooooooooooooooooooooooooooooooo",
"oooooooooooooooooooooooooooooooooooooooooooooooooooooooooooooooo",
"oooooooooooooooooooooooooooooooooooooooooooooooooooooooooooooooo",
"ooooooooooooooooooooooooooo           oooooooooooooooooooooooooo",
"ooooooooooooooooooooooooooo           oooooooooooooooooooooooooo",
"ooooooooooooooooooooooooooo           oooooooooooooooooooooooooo",
"ooooooooooooooooooooooooooo           oooooooooooooooooooooooooo",
"ooooooooooooooooooooooooooo           oooooooooooooooooooooooooo",
"ooooooooooooooooooooooooooo           oooooooooooooooooooooooooo",
"oooooooooooooooooooooo     XXXXXXXXXXX     ooooooooooooooooooooo",
"oooooooooooooooooooooo     XXXXXXXXXXX     ooooooooooooooooooooo",
"oooooooooooooooooooooo     XXXXXXXXXXX     ooooooooooooooooooooo",
"oooooooooooooooooooooo     XXXXXXXXXXX     ooooooooooooooooooooo",
"oooooooooooooooooooooo     XXXXXXXXXXX     ooooooooooooooooooooo",
"oooooooooooooooooooooo     XXXXXXXXXXX     ooooooooooooooooooooo",
"oooooooooooooooooooooo     XXXXXXXXXXX     ooooooooooooooooooooo",
"ooooooooooooooooo     XXXXXXXXXXXXXXXX.....     oooooooooooooooo",
"ooooooooooooooooo     XXXXXXXXXXXXXXXX.....     oooooooooooooooo",
"ooooooooooooooooo     XXXXXXXXXXXXXXXX.....     oooooooooooooooo",
"ooooooooooooooooo     XXXXXXXXXXXXXXXX.....     oooooooooooooooo",
"ooooooooooooooooo     XXXXXXXXXXXXXXXX.....     oooooooooooooooo",
"ooooooooooooooooo     XXXXXXXXXXXXXXXX.....     oooooooooooooooo",
"ooooooooooooooooo     XXXXXXXXXXXXXXXX.....     oooooooooooooooo",
"ooooooooooooooooo     XXXXXXXXXXXXXXXX.....     oooooooooooooooo",
"ooooooooooooooooo     XXXXXXXXXXXXXXXX.....     oooooooooooooooo",
"ooooooooooooooooo     XXXXXXXXXXXXXXXX.....     oooooooooooooooo",
"ooooooooooooooooo     XXXXXXXXXXXXXXXX.....     oooooooooooooooo",
"ooooooooooooooooo     XXXXXXXXXXXXXXXX.....     oooooooooooooooo",
"ooooooooooooooooo     XXXXXXXXXXXXXXXX.....     oooooooooooooooo",
"ooooooooooooooooo     XXXXXXXXXXXXXXXX.....     oooooooooooooooo",
"ooooooooooooooooo     XXXXXXXXXXXXXXXX.....     oooooooooooooooo",
"ooooooooooooooooo     XXXXXXXXXXXXXXXX.....     oooooooooooooooo",
"ooooooooooooooooo     XXXXXXXXXXXXXXXX.....     oooooooooooooooo",
"ooooooooooooooooo     XXXXXXXXXXXXXXXX.....     oooooooooooooooo",
"ooooooooooooooooo     XXXXXXXXXXX..........     oooooooooooooooo",
"ooooooooooooooooo     XXXXXXXXXXX..........     oooooooooooooooo",
"ooooooooooooooooo     XXXXXXXXXXX..........     oooooooooooooooo",
"ooooooooooooooooo     XXXXXXXXXXX..........     oooooooooooooooo",
"ooooooooooooooooo     XXXXXXXXXXX..........     oooooooooooooooo",
"ooooooooooooooooo     XXXXXXXXXXX..........     oooooooooooooooo",
"oooooooooooooooooooooo                     ooooooooooooooooooooo",
"oooooooooooooooooooooo                     ooooooooooooooooooooo",
"oooooooooooooooooooooo                     ooooooooooooooooooooo",
"oooooooooooooooooooooo                     ooooooooooooooooooooo",
"oooooooooooooooooooooo                     ooooooooooooooooooooo",
"oooooooooooooooooooooo                     ooooooooooooooooooooo",
"oooooooooooooooooooooooooooooooooooooooooooooooooooooooooooooooo",
"oooooooooooooooooooooooooooooooooooooooooooooooooooooooooooooooo",
"oooooooooooooooooooooooooooooooooooooooooooooooooooooooooooooooo",
"oooooooooooooooooooooooooooooooooooooooooooooooooooooooooooooooo",
"oooooooooooooooooooooooooooooooooooooooooooooooooooooooooooooooo",
"oooooooooooooooooooooooooooooooooooooooooooooooooooooooooooooooo",
"oooooooooooooooooooooooooooooooooooooooooooooooooooooooooooooooo",
"oooooooooooooooooooooooooooooooooooooooooooooooooooooooooooooooo",
"oooooooooooooooooooooooooooooooooooooooooooooooooooooooooooooooo",
"oooooooooooooooooooooooooooooooooooooooooooooooooooooooooooooooo",
"oooooooooooooooooooooooooooooooooooooooooooooooooooooooooooooooo",
"oooooooooooooooooooooooooooooooooooooooooooooooooooooooooooooooo"
};
