/* XPM */
static char *result[] = {
/* columns rows colors chars-per-pixel */
"64 64 9 1 ",
"  c #754C60",
". c #8F625E",
"X c #C49A6C",
"o c #D3C169",
"O c #C58086",
"+ c #E7D0A6",
"@ c #F3F2C0",
"# c #ECECEC",
"$ c None",
/* pixels */
"$$$$$$$$$$$$$$$$$$$$$$$$$$$$$$$$$$$$$$$$$$$$$$$$$$$$$$$$$$$$$$$$",
"$$$$$$$$$$$$$$$$$$$$$$$$$$$$$$$$$$$$$$$$$$$$$$$$$$$$$$$$$$$$$$$$",
"$$$$$$$$$$$$$$$$$$$$$$$$$$$$$$$$$$$$$$$$$$$$$$$$$$$$$$$$$$$$$$$$",
"$$$$$$$$$$$$$$$$$$$$$$$$$$$$$$$$$$$$$$$$$$$$$$$$$$$$$$$$$$$$$$$$",
"$$$$$$$$$$$$$$$$$$$$$$$$$$$$$............$$$$$$$$$$$$$$$$$$$$$$$",
"$$$$$$$$$$$$$$$$$$$$$$$$$$$$$............$$$$$$$$$$$$$$$$$$$$$$$",
"$$$$$$$$$$$$$$$$$$$$$$$$$$$$$............$$$$$$$$$$$$$$$$$$$$$$$",
"$$$$$$$$$$$$$$$$$$$$$$$$$$$$$............$$$$$$$$$$$$$$$$$$$$$$$",
"$$$$$$$$$$$$$$$$$$$$$$$$$$$$$............$$$$$$$$$$$$$$$$$$$$$$$",
"$$$$$$$$$$$$$$$$$$$$$$$$$....OOOOOOOOOOOO....$$$$$$$$$$$$$$$$$$$",
"$$$$$$$$$$$$$$$$$$$$$$$$$....OOOOOOOOOOOO....$$$$$$$$$$$$$$$$$$$",
"$$$$$$$$$$$$$$$$$$$$$$$$$....OOOOOOOOOOOO....$$$$$$$$$$$$$$$$$$$",
"$$$$$$$$$$$$$$$$$$$$$$$$$....OOOOOOOOOOOO....$$$$$$$$$$$$$$$$$$$",
"$$$$$$$$$$$$$$$$$$$$$$$$$....OOOOOOOOOOOO....$$$$$$$$$$$$$$$$$$$",
"$$$$$$$$$$$$$$$$$$$$$....@@@@@@@@@@@@@@@@@@@@....$$$$$$$$$$$$$$$",
"$$$$$$$$$$$$$$$$$$$$$....@@@@@@@@@@@@@@@@@@@@....$$$$$$$$$$$$$$$",
"$$$$$$$$$$$$$$$$$$$$$....@@@@@@@@@@@@@@@@@@@@....$$$$$$$$$$$$$$$",
"$$$$$$$$$$$$$$$$$$$$$....@@@@@@@@@@@@@@@@@@@@....$$$$$$$$$$$$$$$",
"$$$$$$$$$$$$$$$$$....@@@@@@@@    @@@@@@@@    @@@@....$$$$$$$$$$$",
"$$$$$$$$$$$$$$$$$....@@@@@@@@    @@@@@@@@    @@@@....$$$$$$$$$$$",
"$$$$$$$$$$$$$$$$$....@@@@@@@@    @@@@@@@@    @@@@....$$$$$$$$$$$",
"$$$$$$$$$$$$$$$$$....@@@@@@@@    @@@@@@@@    @@@@....$$$$$$$$$$$",
"$$$$$$$$$$$$$$$$$....@@@@@@@@    @@@@@@@@    @@@@....$$$$$$$$$$$",
"$$$$$$$$$$$$$$$$$....@@@@@@@@@@@@@@@@oooooooo@@@@....$$$$$$$$$$$",
"$$$$$$$$$$$$$$$$$....@@@@@@@@@@@@@@@@oooooooo@@@@....$$$$$$$$$$$",
"$$$$$$$$$$$$$$$$$....@@@@@@@@@@@@@@@@oooooooo@@@@....$$$$$$$$$$$",
"$$$$$$$$$$$$$$$$$....@@@@@@@@@@@@@@@@oooooooo@@@@....$$$$$$$$$$$",
"$$$$$$$$$$$$$$$$$....@@@@@@@@@@@@@@@@oooooooo@@@@....$$$$$$$$$$$",
"$$$$$$$$$$$$$....@@@@@@@@@@@@@@@@@@@@@@@@@@@@@@@@....$$$$$$$$$$$",
"$$$$$$$$$$$$$....@@@@@@@@@@@@@@@@@@@@@@@@@@@@@@@@....$$$$$$$$$$$",
"$$$$$$$$$$$$$....@@@@@@@@@@@@@@@@@@@@@@@@@@@@@@@@....$$$$$$$$$$$",
"$$$$$$$$$$$$$....@@@@@@@@@@@@@@@@@@@@@@@@@@@@@@@@....$$$$$$$$$$$",
"$$$$$$$$$....@@@@@@@@@@@@@@@@@@@@@@@@@@@@@@@@@@@@....$$$$$$$$$$$",
"$$$$$$$$$....@@@@@@@@@@@@@@@@@@@@@@@@@@@@@@@@@@@@....$$$$$$$$$$$",
"$$$$$$$$$....@@@@@@@@@@@@@@@@@@@@@@@@@@@@@@@@@@@@....$$$$$$$$$$$",
"$$$$$$$$$....@@@@@@@@@@@@@@@@@@@@@@@@@@@@@@@@@@@@....$$$$$$$$$$$",
"$$$$$$$$$....@@@@@@@@@@@@@@@@@@@@@@@@@@@@@@@@@@@@....$$$$$$$$$$$",
"$$$$$$$$$....++++@@@@@@@@@@@@XXXX@@@@@@@@@@@@++++....$$$$$$$$$$$",
"$$$$$$$$$....++++@@@@@@@@@@@@XXXX@@@@@@@@@@@@++++....$$$$$$$$$$$",
"$$$$$$$$$....++++@@@@@@@@@@@@XXXX@@@@@@@@@@@@++++....$$$$$$$$$$$",
"$$$$$$$$$....++++@@@@@@@@@@@@XXXX@@@@@@@@@@@@++++....$$$$$$$$$$$",
"$$$$$$$$#....++++@@@@@@@@@@@@XXXX@@@@@@@@@@@@++++....$$$$$$$$$$$",
"$$$$$$$$$$$$$....XXXXXXXXXXXX++++++++++++++++....$$$$$$$$$$$$$$$",
"$$$$$$$$$$$$$....XXXXXXXXXXXX++++++++++++++++....$$$$$$$$$$$$$$$",
"$$$$$$$$$$$$$....XXXXXXXXXXXX++++++++++++++++....$$$$$$$$$$$$$$$",
"$$$$$$$$$$$$$....XXXXXXXXXXXX++++++++++++++++....$$$$$$$$$$$$$$$",
"$$$$$$$$$$$$$....XXXXXXXXXXXX++++++++++++++++....$$$$$$$$$$$$$$$",
"$$$$$$$$$$$$$$$$$....oooooooo....oooooooo....$$$$$$$$$$$$$$$$$$$",
"$$$$$$$$$$$$$$$$$....oooooooo....oooooooo....$$$$$$$$$$$$$$$$$$$",
"$$$$$$$$$$$$$$$$$....oooooooo....oooooooo....$$$$$$$$$$$$$$$$$$$",
"$$$$$$$$$$$$$$$$$....oooooooo....oooooooo....$$$$$$$$$$$$$$$$$$$",
"$$$$$$$$$$$$$$$$$$$$$........$$$$........$$$$$$$$$$$$$$$$$$$$$$$",
"$$$$$$$$$$$$$$$$$$$$$........$$$$........$$$$$$$$$$$$$$$$$$$$$$$",
"$$$$$$$$$$$$$$$$$$$$$........$$$$........$$$$$$$$$$$$$$$$$$$$$$$",
"$$$$$$$$$$$$$$$$$$$$$........$$$$........$$$$$$$$$$$$$$$$$$$$$$$",
"$$$$$$$$$$$$$$$$$$$$$........$$$$........$$$$$$$$$$$$$$$$$$$$$$$",
"$$$$$$$$$$$$$$$$$$$$$$$$$$$$$$$$$$$$$$$$$$$$$$$$$$$$$$$$$$$$$$$$",
"$$$$$$$$$$$$$$$$$$$$$$$$$$$$$$$$$$$$$$$$$$$$$$$$$$$$$$$$$$$$$$$$",
"$$$$$$$$$$$$$$$$$$$$$$$$$$$$$$$$$$$$$$$$$$$$$$$$$$$$$$$$$$$$$$$$",
"$$$$$$$$$$$$$$$$$$$$$$$$$$$$$$$$$$$$$$$$$$$$$$$$$$$$$$$$$$$$$$$$",
"$$$$$$$$$$$$$$$$$$$$$$$$$$$$$$$$$$$$$$$$$$$$$$$$$$$$$$$$$$$$$$$$",
"$$$$$$$$$$$$$$$$$$$$$$$$$$$$$$$$$$$$$$$$$$$$$$$$$$$$$$$$$$$$$$$$",
"$$$$$$$$$$$$$$$$$$$$$$$$$$$$$$$$$$$$$$$$$$$$$$$$$$$$$$$$$$$$$$$$",
"$$$$$$$$$$$$$$$$$$$$$$$$$$$$$$$$$$$$$$$$$$$$$$$$$$$$$$$$$$$$$$$$"
};
